<svg width="1440" height="1455" viewBox="0 0 1440 1455" version="1.1" xmlns="http://www.w3.org/2000/svg" xmlns:xlink="http://www.w3.org/1999/xlink">
<title>Group</title>
<desc>Created using Figma</desc>
<g id="Canvas" transform="translate(-1859 -5319)">
<g id="Group">
<g id="Rectangle 4">
<use xlink:href="#path0_fill" transform="translate(1859 5319)" fill="#0B3E52"/>
</g>
<g id=" 1">
<g id="Page 1 Finals">
<g id="gh logged out">
<g id="1mg logo">
<g id="Fill 2">
<use xlink:href="#path1_fill" transform="translate(2241.03 6354.73)" fill="#6CF8F1"/>
</g>
<g id="Fill 3">
<use xlink:href="#path2_fill" transform="translate(2376.81 6351.48)" fill="#6CF8F1"/>
</g>
<g id="Fill 5">
<use xlink:href="#path3_fill" transform="translate(2709.63 6351.49)" fill="#6CF8F1"/>
</g>
<g id="Fill 7">
<use xlink:href="#path4_fill" transform="translate(2245.19 5547.15)" fill="#FDFDFD"/>
</g>
</g>
</g>
</g>
</g>
</g>
</g>
<defs>
<path id="path0_fill" d="M 0 0L 1440 0L 1440 1455L 0 1455L 0 0Z"/>
<path id="path1_fill" fill-rule="evenodd" d="M 3.62115e-07 142.625L 41.0881 142.625L 41.0881 43.1499L 6.61822 48.6241L 6.61822 10.9169L 84.7041 -1.22423e-05L 84.7041 142.625L 116.723 142.625L 116.723 179.486L 3.62115e-07 179.486L 3.62115e-07 142.625Z"/>
<path id="path2_fill" fill-rule="evenodd" d="M 6.97975e-07 145.872L 26.0593 145.872L 26.0593 40.954L 6.97975e-07 40.954L 6.97975e-07 3.24682L 68.0972 3.24682L 68.0972 31.5272C 81.7167 16.3754 100.928 -1.6764e-05 126.926 -1.6764e-05C 145.723 -1.6764e-05 159.787 7.37204 168.55 19.2771C 170.971 22.5396 172.533 25.7551 174.111 29.5195C 190.565 13.1285 210.236 -1.6764e-05 232.557 -1.6764e-05C 256.931 -1.6764e-05 273.814 9.00328 282.638 25.7551C 287.403 34.8054 289.823 46.2556 289.823 59.4155L 289.823 145.872L 315.852 145.872L 315.852 182.732L 222.553 182.732L 222.553 145.872L 246.161 145.872L 246.161 70.0501C 246.161 63.1015 245.334 57.7999 243.419 53.3139C 239.757 44.593 232.557 40.5619 222.553 40.5619C 208.137 40.5619 192.94 49.1731 179.795 60.5919L 179.795 145.872L 203.311 145.872L 203.311 182.732L 112.142 182.732L 112.142 145.872L 136.087 145.872L 136.087 70.0501C 136.087 63.1015 135.367 57.7999 133.33 53.3139C 129.683 44.593 122.881 40.5619 112.479 40.5619C 98.0478 40.5619 82.881 49.1731 69.7211 60.5919L 69.7211 145.872L 92.8696 145.872L 92.8696 182.732L 6.97975e-07 182.732L 6.97975e-07 145.872Z"/>
<path id="path3_fill" fill-rule="evenodd" d="M 44.8262 90.5663C 44.8262 123.348 64.4204 141.324 91.2304 141.324C 106.075 141.324 119.327 134.359 130.541 123.709L 130.541 52.4827C 120.139 44.2166 106.918 38.4915 91.2304 38.4915C 64.4204 38.4915 44.8262 56.5294 44.8262 90.5663ZM 174.111 183.093C 174.111 205.288 168.55 223.702 157.688 237.27C 143.318 255.245 120.491 264.719 92.073 264.719C 61.6782 264.719 35.6649 254.837 23.2557 242.132C 16.4536 235.168 13.6195 227.388 13.6195 218.793C 13.6195 206.088 22.888 193.759 37.2275 193.759C 50.8929 193.759 61.6782 203.688 61.6782 217.146C 61.6782 219.185 61.2492 222.479 60.8662 224.11C 68.0819 226.557 76.4773 228.612 86.8336 228.612C 102.521 228.612 114.93 223.702 122.468 213.083C 127.738 205.664 130.541 195.437 130.541 181.917L 130.541 156.13C 117.274 169.604 103.257 179.046 80.0774 179.046C 35.6649 179.046 4.35418e-06 144.225 4.35418e-06 90.9741C 4.35418e-06 39.6992 36.4462 3.03754e-05 82.0844 3.03754e-05C 104.497 3.03754e-05 120.492 9.00332 132.104 19.2614L 132.104 3.2468L 200.109 3.2468L 200.109 40.9384L 174.111 40.9384L 174.111 183.093Z"/>
<path id="path4_fill" fill-rule="evenodd" d="M 428.683 438.934L 428.683 219.451L 428.683 2.00291e-08L 214.326 2.00291e-08L -5.46721e-09 2.00291e-08L -5.46721e-09 219.451L 214.326 219.451L 214.326 438.934L -5.46721e-09 438.934L -5.46721e-09 658.386L 214.326 658.386L 428.683 658.386L 643.071 658.386L 643.071 438.934L 428.683 438.934Z"/>
</defs>
</svg>
