<svg width="1676" height="1676" viewBox="0 0 1676 1676" version="1.1" xmlns="http://www.w3.org/2000/svg" xmlns:xlink="http://www.w3.org/1999/xlink">
<title>mdg</title>
<desc>Created using Figma</desc>
<g id="Canvas" transform="translate(-1795 -7062)">
<g id="mdg">
<mask id="mask0_alpha" mask-type="alpha">
<g id="Vector">
<use xlink:href="#path0_fill" transform="translate(1795 7062)" fill="#7A574A"/>
</g>
</mask>
<g id="Group" mask="url(#mask0_alpha)">
<g id="Group">
<g id="Rectangle 2">
<use xlink:href="#path1_fill" transform="translate(1807 7062)"/>
</g>
</g>
<g id="Vector">
<use xlink:href="#path2_fill" transform="translate(2058 7313)" fill="#F59623"/>
</g>
</g>
</g>
</g>
<defs>
<path id="path0_fill" d="M 1330.63 1675.32L 344.615 1675.32C 154.309 1675.32 2.6744e-14 1521 2.6744e-14 1330.69L 2.6744e-14 344.629C 2.6744e-14 154.315 154.309 6.98289e-13 344.615 6.98289e-13L 1330.63 6.98289e-13C 1520.94 6.98289e-13 1675.24 154.315 1675.24 344.629L 1675.24 1330.69C 1675.24 1521 1520.94 1675.32 1330.63 1675.32Z"/>
<path id="path1_fill" d="M 0 0L 1676 0L 1676 1676L 0 1676L 0 0Z"/>
<path id="path2_fill" d="M 0.131341 564.564C -5.94841 312.587 199.547 43.0832 511.872 4.90487C 698.607 -17.8286 862.934 38.5712 998.252 171.848C 1021.7 194.929 1021.01 199.267 989.914 211.588C 847.995 267.815 705.903 323.694 563.984 379.747C 532.37 392.241 500.755 404.736 469.14 417.578C 451.77 424.693 441 436.32 450.727 456.45C 459.586 474.672 473.136 477.796 492.07 470.333C 668.73 400.224 845.39 330.635 1022.22 261.047C 1057.14 247.337 1067.39 251.329 1087.19 283.954C 1153.89 393.977 1185.16 514.065 1168.66 641.095C 1144.34 827.301 1060.61 981.229 896.286 1082.92C 678.978 1217.41 411.122 1200.06 212.575 1039.19C 205.279 1033.29 192.772 1028.08 194.857 1017.5C 196.594 1008.3 209.448 1008.3 217.613 1005C 408.169 929.514 598.726 854.199 789.109 778.884C 812.907 769.513 821.071 755.283 812.733 737.582C 802.832 716.757 785.635 718.319 768.09 725.26C 615.228 785.305 462.366 845.696 309.677 906.087C 261.908 925.002 214.138 944.265 166.543 963.701C 150.735 970.122 139.618 968.213 127.98 953.463C 42.5158 845.002 -1.43202 722.831 0.131341 564.564Z"/>
</defs>
</svg>
