<svg width="1304" height="534" viewBox="0 0 1304 534" version="1.1" xmlns="http://www.w3.org/2000/svg" xmlns:xlink="http://www.w3.org/1999/xlink">
<title>logo</title>
<desc>Created using Figma</desc>
<g id="Canvas" transform="translate(-1993 -7633)">
<g id="logo">
<g id="MDGLOGO">
<g id="Vector">
<use xlink:href="#path0_fill" transform="translate(2773.96 7635.67)" fill="#FFC107"/>
</g>
<g id="Vector">
<use xlink:href="#path1_fill" transform="translate(2853.67 7635.67)" fill="#FFC107"/>
</g>
<g id="Union">
<use xlink:href="#path2_fill" transform="translate(1993 7633)" fill="#777777"/>
</g>
<g id="Vector">
<use xlink:href="#path3_fill" transform="translate(2774 7777.39)" fill="#FFC107"/>
</g>
<g id="Vector">
<use xlink:href="#path4_fill" transform="translate(3238 7902.32)" fill="#FFC107"/>
</g>
<g id="Vector">
<use xlink:href="#path5_fill" transform="translate(2631.06 7958.32)" fill="#FFC107"/>
</g>
<g id="Vector">
<use xlink:href="#path6_fill" transform="translate(2579.86 7790.85)" fill="#777777"/>
</g>
</g>
</g>
</g>
<defs>
<path id="path0_fill" d="M 518.766 323.366C 515.82 317.307 514.302 309.377 510.642 303.852C 507.607 299.263 503.544 295.387 500.777 290.62C 498.679 287.101 497.34 283.046 493.59 281.13C 488.368 278.457 483.011 276.452 477.431 274.581C 472.655 272.977 469.396 270.081 467.432 266.606L 285.666 266.606C 273.971 266.606 264.508 276.051 264.508 287.724L 264.508 288.17C 264.508 299.843 273.971 309.288 285.666 309.288L 481.359 309.288C 460.647 410.778 368.38 488.255 258.66 485.315C 140.816 482.152 45.558 385.562 43.7725 267.898C 41.8977 144.532 142.021 43.7991 265.177 43.7991C 319.591 43.7991 369.452 63.3577 408.064 95.881C 416.545 103.009 429.088 102.386 436.944 94.5444L 437.257 94.2326C 446.095 85.3666 445.515 70.8425 435.962 62.7339C 389.45 23.3495 329.099 -0.352457 263.213 0.00396364C 119.746 0.805909 2.03595 117.222 0.0272385 260.369C -2.07075 408.016 117.247 528.486 264.731 528.486C 389.36 528.486 493.813 443.703 521.98 327.554C 520.685 326.396 519.57 325.015 518.766 323.366Z"/>
<path id="path1_fill" d="M 37.0942 100.871C 76.4203 65.4516 128.468 43.8437 185.471 43.8437C 239.885 43.8437 289.746 63.4022 328.357 95.9256C 336.839 103.054 349.382 102.43 357.238 94.589L 357.551 94.2771C 366.389 85.4112 365.809 70.887 356.256 62.7785C 309.743 23.3495 249.393 -0.352457 183.507 0.00396362C 112.354 0.404936 47.4949 29.275 -1.0898e-05 75.6987C 13.3468 82.2925 25.9793 92.4059 37.0942 100.871Z"/>
<path id="path2_fill" fill-rule="evenodd" d="M 558.333 2.7168C 465.084 2.7168 466.869 92.0444 466.869 92.0454L 466.869 469.896C 466.869 475.153 464.414 480.232 460.04 483.083C 449.684 489.855 438.345 481.613 438.345 472.079L 438.345 99.7529L 438.256 99.7529C 436.739 44.5972 391.163 0.400879 335.544 0.579102C 276.845 0.757324 230.109 51.458 233.992 109.867C 233.992 109.951 234.002 110.035 234.013 110.124C 234.025 110.223 234.037 110.328 234.037 110.446L 234.037 188.279C 234.037 188.294 234.012 188.309 233.987 188.324C 233.938 188.354 233.888 188.383 234.037 188.413L 234.037 246.821C 234.037 250.385 232.251 253.727 229.484 256.222C 226.761 258.717 223.101 260.32 219.351 260.32C 211.852 260.32 205.513 253.949 205.513 246.821L 205.513 113.921L 205.513 113.297C 205.379 113.653 205.156 114.01 204.888 114.322C 204.871 114.339 204.861 114.356 204.852 114.371C 204.837 114.394 204.827 114.411 204.799 114.411C 204.777 114.5 204.754 114.734 204.732 114.968C 204.71 115.202 204.688 115.436 204.665 115.525L 204.844 116.416L 204.308 116.416L 204.978 109.243L 205.022 109.198L 204.888 113.787L 204.844 114.055L 204.888 114.055L 204.888 114.144C 204.888 114.099 204.888 114.01 204.933 113.965C 204.933 113.881 204.943 113.797 204.954 113.708C 204.965 113.609 204.978 113.504 204.978 113.386C 205.031 112.884 205.099 112.428 205.165 111.992L 205.168 111.971L 205.17 111.959C 205.213 111.672 205.255 111.393 205.29 111.114C 205.379 110.668 205.424 110.223 205.469 109.733C 205.469 109.688 205.48 109.644 205.491 109.599C 205.502 109.555 205.513 109.51 205.513 109.466C 205.558 109.243 205.558 108.976 205.558 108.664L 205.558 108.485C 205.558 108.209 205.418 107.933 205.262 107.626L 205.201 107.505L 205.558 103.362L 205.558 105.768C 205.603 104.698 205.603 103.54 205.603 102.471C 205.603 102.184 205.608 102.068 205.616 101.928L 205.616 101.922L 205.616 101.918L 205.616 101.914C 205.629 101.663 205.647 101.315 205.647 99.7979C 204.353 45.2207 159.09 0 103.337 0C 47.584 0 2.36548 45.2207 1.07104 99.7529C 1.04175 101.298 1.07007 101.623 1.09302 101.887C 1.10498 102.026 1.11572 102.149 1.11572 102.426C 1.11572 102.961 1.12695 103.518 1.13818 104.075L 1.13892 104.11C 1.14966 104.655 1.1604 105.2 1.1604 105.723L 1.1604 511.418C 1.1604 523.715 11.1592 533.739 23.5239 533.739L 23.9705 533.739C 36.2905 533.739 46.334 523.76 46.334 511.418L 46.334 102.693C 46.334 71.1504 71.7778 45.5771 103.337 45.5771C 134.896 45.5771 160.34 71.1504 160.34 102.693L 160.34 241.475C 160.206 242.856 160.161 244.282 160.161 245.707C 160.161 278.32 186.631 305.274 219.306 305.274C 235.644 305.274 250.553 298.368 261.445 287.586C 272.292 276.805 279.077 262.192 279.077 246.776L 279.077 102.693C 279.077 71.1504 304.521 45.2651 336.08 45.2651C 366.88 45.2651 391.833 68.9229 393.038 99.7529L 393.083 99.7529L 393.083 462.589L 392.815 472.079C 392.815 505.983 420.446 532.225 454.103 531.066C 485.93 529.997 511.909 501.884 511.909 470.074L 511.909 72.8125L 512.043 71.9976L 512.043 91.064C 512.043 69.1685 528.19 50.6152 549.111 46.7573L 555.21 46.0645C 555.741 46.041 556.275 46.0273 556.81 46.0229L 653.412 46.0229L 653.412 46.334L 654.483 46.334C 776.523 46.334 876.513 145.107 876.513 266.914C 876.513 386.799 780.302 484.371 660.911 487.42L 660.911 487.405L 596.811 487.405C 584.937 487.405 575.34 497.117 575.34 509.057L 575.34 509.503C 575.34 521.487 584.937 531.155 596.811 531.155L 653.412 531.155L 653.412 531.199L 654.974 531.199C 801.164 531.199 920.303 412.778 920.303 266.869C 920.303 120.959 801.387 2.67236 655.197 2.67236L 653.412 2.67236L 653.412 2.76221L 558.333 2.76221L 558.333 2.7168ZM 1.1604 105.723L 1.1604 102.693C 1.1604 106.837 1.38354 110.936 1.82983 114.945C 1.42822 111.916 1.24976 108.842 1.1604 105.723ZM 205.513 113.921C 205.513 114.01 205.513 114.188 205.469 114.322L 205.469 114.099C 205.424 114.144 205.469 114.01 205.469 114.01C 205.424 114.01 205.513 113.876 205.513 113.921ZM 0.0446777 105.791C 0.0334473 105.768 0.0224609 105.746 0 105.724L 0 102.694C 0 103.722 0.0412598 104.708 0.0842285 105.732L 0.0893555 105.857C 0.0668945 105.834 0.0559082 105.812 0.0446777 105.791ZM 0.0893555 105.857C 1.49463 107.832 1.18628 109.789 0.880859 111.727C 0.720947 112.742 0.561768 113.753 0.650391 114.759C 0.349854 111.834 0.176758 108.867 0.0893555 105.857Z"/>
<path id="path3_fill" d="M 513.365 170.369C 507.116 161.013 499.973 152.37 493.188 143.415C 487.386 135.796 483.145 132.633 474.128 129.603C 470.959 128.534 468.504 126.886 466.584 124.925L 285.621 124.925C 273.926 124.925 264.463 134.37 264.463 146.043L 264.463 146.489C 264.463 158.162 273.926 167.607 285.621 167.607L 481.315 167.607C 460.603 269.097 368.336 346.574 258.615 343.634C 140.771 340.471 45.5134 243.881 43.7279 126.217C 43.3261 99.9759 47.5668 74.8037 55.6463 51.3691C 52.3877 47.4485 49.6201 43.5278 47.4329 39.9636C 39.889 27.7117 34.1753 14.0786 30.3811 2.71927e-06C 11.5438 35.5975 0.65216 75.9621 0.0272276 118.688C -2.07076 266.335 117.247 386.805 264.731 386.805C 389.092 386.805 493.412 302.378 521.802 186.586"/>
<path id="path4_fill" d="M 57.7616 61.6619C 57.7616 61.6619 69.8139 -0.310695 4.35918e-05 0.00117313L 57.7616 61.6619Z"/>
<path id="path5_fill" d="M 38.0762 11.2718L 7.05279 11.2718C 3.16928 11.2718 1.0898e-05 8.77685 1.0898e-05 5.70273L 1.0898e-05 5.56907C 1.0898e-05 2.49495 3.16928 5.43854e-06 7.05279 5.43854e-06L 38.0762 5.43854e-06C 41.9597 5.43854e-06 45.1291 2.49495 45.1291 5.56907L 45.1291 5.70273C 45.1291 8.77685 41.9597 11.2718 38.0762 11.2718Z"/>
<path id="path6_fill" d="M 109.899 21.3407C 117.443 21.3407 123.558 27.4444 123.558 34.9737L 123.558 180.794C 123.558 188.324 117.443 194.427 109.899 194.427L 35.0409 194.427C 27.497 194.427 21.3816 188.324 21.3816 180.794L 21.3816 34.9737C 21.3816 27.4444 27.497 21.3407 35.0409 21.3407L 109.899 21.3407ZM 109.899 -5.43854e-06L 35.0409 -5.43854e-06C 15.7126 -5.43854e-06 -2.17959e-05 15.6825 -2.17959e-05 34.9737L -2.17959e-05 180.794C -2.17959e-05 200.085 15.7126 215.768 35.0409 215.768L 109.899 215.768C 129.227 215.768 144.94 200.085 144.94 180.794L 144.94 34.9737C 144.94 15.727 129.227 -5.43854e-06 109.899 -5.43854e-06Z"/>
</defs>
</svg>
