<svg width="1510" height="1896" viewBox="0 0 1510 1896" version="1.1" xmlns="http://www.w3.org/2000/svg" xmlns:xlink="http://www.w3.org/1999/xlink">
<title>Prattle Icon</title>
<desc>Created using Figma</desc>
<g id="Canvas" transform="translate(-6900 -6936)">
<g id="Prattle Icon">
<g id="Combined Shape">
<use xlink:href="#path0_fill" transform="translate(6900 6936)" fill="#6E41FB"/>
</g>
</g>
</g>
<defs>
<path id="path0_fill" fill-rule="evenodd" d="M 928.787 1489.42C 913.379 1548.72 897.939 1616.59 882.769 1695.3C 769.319 2283.97 123.174 1434.82 33.5464 977.919C 11.7412 907.391 9.12146e-08 832.445 9.12146e-08 754.757C 9.12146e-08 438.187 194.962 167.137 471.403 55.054C 479.33 50.4314 486.816 47.6165 494.103 46.2766C 575.413 16.3438 663.297 -5.71072e-08 755 -5.71072e-08C 1171.97 -5.71072e-08 1510 337.916 1510 754.757C 1510 1111.81 1261.99 1410.95 928.787 1489.42ZM 755 1137.94C 966.695 1137.94 1138.31 966.384 1138.31 754.757C 1138.31 543.13 966.695 371.573 755 371.573C 543.305 371.573 371.692 543.13 371.692 754.757C 371.692 966.384 543.305 1137.94 755 1137.94Z"/>
</defs>
</svg>
