<?xml version="1.0" encoding="utf-8"?>
<!-- Generator: Adobe Illustrator 21.0.0, SVG Export Plug-In . SVG Version: 6.00 Build 0)  -->
<svg version="1.1" id="Layer_1" xmlns="http://www.w3.org/2000/svg" xmlns:xlink="http://www.w3.org/1999/xlink" x="0px" y="0px"
	 viewBox="0 0 73.6 47.3" style="enable-background:new 0 0 73.6 47.3;" xml:space="preserve">
<style type="text/css">
	.st0{display:none;fill:#777777;enable-background:new    ;}
	.st1{font-family:'ArialMT';}
	.st2{font-size:5.6px;}
	.st3{fill:#777777;}
</style>
<g id="Page-1_1_">
	<g id="FAQs" transform="translate(-50.000000, -30.000000)">
		<g id="Page-1" transform="translate(50.000000, 30.000000)">
			<text transform="matrix(1 0 0 1 0.6376 50.5254)" class="st0 st1 st2">STUDENT</text>
			<text transform="matrix(1 0 0 1 25.2962 50.5254)" class="st0 st1 st2"> </text>
			<text transform="matrix(1 0 0 1 26.6583 50.5254)" class="st0 st1 st2">AFFAIRS</text>
			<text transform="matrix(1 0 0 1 48.3282 50.5254)" class="st3 st1 st2"> </text>
			<text transform="matrix(1 0 0 1 49.6903 50.5254)" class="st0 st1 st2">COUNCIL</text>
			<path id="Fill-2" class="st3" d="M41.8,17.8c-0.1,0.2-0.2,0.2-0.2,0.3c0,0.1,0.2,0.2,0.2,0.2c0.1,0,0.2-0.1,0.2-0.2
				C42.1,18,41.9,17.9,41.8,17.8L41.8,17.8z M34.6,13c-0.2-0.1-0.2-0.2-0.3-0.2s-0.2,0.1-0.2,0.2c0.1,0.1,0.2,0.2,0.3,0.2
				C34.3,13.2,34.4,13.1,34.6,13L34.6,13z M44.8,12.1c-0.1-0.1-0.2-0.2-0.3-0.2s-0.2,0.1-0.2,0.2c0.1,0.1,0.2,0.2,0.2,0.2
				C44.6,12.3,44.6,12.2,44.8,12.1L44.8,12.1z M38.8,12.8c-0.2-0.1-0.2-0.2-0.3-0.2s-0.2,0.1-0.3,0.2c0.1,0.1,0.1,0.2,0.2,0.2
				C38.5,13,38.6,12.9,38.8,12.8L38.8,12.8z M35.3,21.6c-0.1,0.2-0.2,0.3-0.2,0.3c0,0.1,0.2,0.2,0.2,0.2c0.1,0,0.2-0.1,0.2-0.2
				C35.5,21.8,35.4,21.7,35.3,21.6L35.3,21.6z M46.3,16.8c0.1-0.2,0.2-0.3,0.2-0.3c0-0.1-0.1-0.2-0.2-0.2c-0.1,0-0.2,0.1-0.2,0.2
				C46.1,16.5,46.2,16.6,46.3,16.8L46.3,16.8z M42.2,12.2c-0.2-0.1-0.3-0.3-0.4-0.2c-0.1,0-0.2,0.2-0.3,0.2c0.1,0.1,0.2,0.2,0.3,0.2
				C41.9,12.4,42,12.3,42.2,12.2L42.2,12.2z M36.6,16.1V16c-0.1-0.1-0.2-0.2-0.3-0.2S36,16,36,16c0,0.1,0.1,0.2,0.2,0.3
				C36.4,16.2,36.5,16.1,36.6,16.1L36.6,16.1z M33,12.7c0-0.2-0.1-0.3-0.3-0.3s-0.3,0.1-0.3,0.3s0.1,0.3,0.3,0.3
				C32.8,13,33,12.9,33,12.7L33,12.7z M36.5,18.9c0-0.2-0.2-0.3-0.4-0.3s-0.3,0.1-0.3,0.3c0,0.2,0.1,0.3,0.3,0.3
				C36.4,19.3,36.5,19.1,36.5,18.9L36.5,18.9z M41.5,15.2c0.2,0,0.3-0.1,0.3-0.3s-0.1-0.3-0.3-0.3s-0.3,0.1-0.3,0.3
				C41.1,15,41.2,15.2,41.5,15.2L41.5,15.2z M40.2,12.6c0-0.2-0.1-0.3-0.3-0.3s-0.4,0.1-0.3,0.3c0,0.2,0.1,0.3,0.3,0.3
				C40.1,13,40.2,12.8,40.2,12.6L40.2,12.6z M35.9,13c0-0.2-0.1-0.3-0.3-0.3s-0.3,0.1-0.4,0.3c0,0.2,0.2,0.3,0.3,0.3
				C35.8,13.2,35.9,13.1,35.9,13L35.9,13z M38.3,19.4c0-0.3-0.1-0.4-0.3-0.4s-0.3,0.1-0.3,0.3c0,0.2,0.1,0.3,0.3,0.3
				C38.2,19.6,38.3,19.5,38.3,19.4L38.3,19.4z M47.6,19.4c0-0.3-0.1-0.4-0.3-0.4s-0.3,0.1-0.4,0.3c0,0.2,0.2,0.4,0.4,0.4
				C47.4,19.6,47.6,19.5,47.6,19.4L47.6,19.4z M30.5,34.5c0.2,0,0.4-0.2,0.4-0.3c0-0.2-0.1-0.3-0.3-0.3c-0.2,0-0.4,0.1-0.4,0.3
				C30.2,34.4,30.3,34.5,30.5,34.5L30.5,34.5z M41.1,34.3c0-0.2-0.1-0.3-0.3-0.3s-0.4,0.1-0.4,0.3s0.1,0.3,0.3,0.3
				C41,34.7,41.1,34.5,41.1,34.3L41.1,34.3z M28.8,41.1c0-0.2-0.2-0.3-0.4-0.3c-0.2,0-0.4,0.2-0.3,0.4c0,0.2,0.1,0.3,0.3,0.3
				C28.6,41.4,28.8,41.3,28.8,41.1L28.8,41.1z M30.3,14.1c-0.2,0-0.4,0.2-0.4,0.3c0,0.2,0.2,0.4,0.4,0.3c0.2,0,0.3-0.1,0.3-0.3
				C30.6,14.2,30.5,14.1,30.3,14.1L30.3,14.1z M35.9,32.9c0-0.2-0.2-0.4-0.4-0.3c-0.2,0-0.3,0.1-0.3,0.3c0,0.2,0.1,0.4,0.3,0.4
				S35.9,33.1,35.9,32.9L35.9,32.9z M27.2,29.7c0-0.2-0.1-0.3-0.3-0.3c-0.2,0-0.4,0.1-0.4,0.3c0,0.2,0.1,0.3,0.3,0.3
				C27.1,30.1,27.2,29.9,27.2,29.7L27.2,29.7z M43.4,16.9c-0.2,0-0.4,0.1-0.4,0.3c0,0.2,0.2,0.4,0.4,0.3c0.2,0,0.3-0.1,0.3-0.3
				C43.7,17.1,43.6,17,43.4,16.9L43.4,16.9z M43.7,13c0-0.2-0.2-0.3-0.4-0.3s-0.4,0.2-0.3,0.4c0,0.2,0.1,0.3,0.3,0.3
				C43.5,13.3,43.7,13.2,43.7,13L43.7,13z M38.7,33.9c0-0.2-0.2-0.3-0.3-0.3c-0.2,0-0.4,0.2-0.4,0.3c0,0.2,0.2,0.3,0.4,0.3
				S38.7,34.1,38.7,33.9L38.7,33.9z M29,18.5c-0.2,0-0.3,0.2-0.3,0.4c0,0.2,0.2,0.3,0.4,0.3c0.2,0,0.3-0.1,0.3-0.3
				C29.4,18.7,29.2,18.5,29,18.5L29,18.5z M34,37.9c0.2,0,0.4-0.1,0.3-0.3c0-0.2-0.1-0.3-0.3-0.3s-0.4,0.1-0.4,0.3
				C33.6,37.8,33.8,37.9,34,37.9L34,37.9z M45.1,14.1c0.2,0,0.4-0.2,0.3-0.4c0-0.2-0.1-0.3-0.3-0.3s-0.4,0.1-0.4,0.3
				C44.7,14,44.9,14.1,45.1,14.1L45.1,14.1z M26,41.1c-0.2,0-0.4,0.2-0.4,0.4s0.1,0.3,0.3,0.3c0.2,0,0.3-0.1,0.4-0.3
				S26.2,41.1,26,41.1L26,41.1z M37.7,15c-0.2,0-0.3,0.1-0.3,0.4c0,0.2,0.1,0.3,0.4,0.3c0.2,0,0.4-0.2,0.4-0.4
				C38.1,15.1,37.9,15,37.7,15L37.7,15z M30.4,22.5c0-0.2-0.2-0.4-0.4-0.4c-0.2,0-0.4,0.2-0.4,0.4c0,0.2,0.2,0.4,0.4,0.4
				C30.2,22.8,30.4,22.7,30.4,22.5L30.4,22.5z M48.8,39.8c0.3,0,0.5-0.2,0.5-0.4c0-0.3-0.2-0.5-0.5-0.5s-0.5,0.2-0.5,0.4
				C48.4,39.6,48.6,39.8,48.8,39.8L48.8,39.8z M50.5,33c-0.2,0-0.5,0.2-0.5,0.4c0,0.3,0.2,0.5,0.5,0.5s0.5-0.2,0.5-0.4
				C51,33.3,50.8,33,50.5,33L50.5,33z M37.1,22.3c-0.3,0-0.5,0.2-0.5,0.5s0.2,0.5,0.5,0.5s0.5-0.2,0.5-0.5S37.4,22.3,37.1,22.3
				L37.1,22.3z M35.8,27.3c0-0.3-0.2-0.5-0.5-0.5s-0.5,0.2-0.5,0.5c0,0.2,0.2,0.5,0.5,0.5S35.8,27.6,35.8,27.3L35.8,27.3z
				 M40.4,17.5c-0.3,0-0.5,0.2-0.5,0.5s0.2,0.5,0.5,0.5s0.5-0.2,0.5-0.5S40.7,17.5,40.4,17.5L40.4,17.5z M45.6,18.8
				c0-0.3-0.2-0.5-0.5-0.5s-0.5,0.2-0.5,0.5s0.2,0.5,0.5,0.5S45.6,19.1,45.6,18.8L45.6,18.8z M31.4,18.5c0.3,0,0.5-0.2,0.5-0.5
				s-0.2-0.5-0.5-0.5s-0.5,0.2-0.5,0.5S31.1,18.5,31.4,18.5L31.4,18.5z M42.3,21.6c0.3,0,0.5-0.2,0.5-0.5s-0.2-0.5-0.5-0.5
				s-0.5,0.2-0.5,0.5S42,21.6,42.3,21.6L42.3,21.6z M33.9,21.7c-0.3,0-0.5,0.2-0.5,0.5s0.2,0.5,0.5,0.5s0.5-0.2,0.5-0.5
				C34.5,21.9,34.2,21.7,33.9,21.7L33.9,21.7z M33.7,16.4c0,0.3,0.2,0.5,0.5,0.5s0.5-0.2,0.5-0.5c0-0.3-0.2-0.5-0.5-0.5
				C34,15.9,33.7,16.1,33.7,16.4L33.7,16.4z M43.3,24c0,0.3,0.2,0.5,0.5,0.5s0.5-0.2,0.5-0.5s-0.2-0.5-0.5-0.5
				C43.5,23.5,43.3,23.7,43.3,24L43.3,24z M47.5,23c-0.3,0-0.5,0.2-0.5,0.5s0.2,0.5,0.5,0.5s0.5-0.2,0.5-0.5
				C48,23.2,47.8,23,47.5,23L47.5,23z M39.2,23c0,0.3,0.2,0.5,0.5,0.5s0.5-0.2,0.5-0.5s-0.2-0.5-0.5-0.5
				C39.5,22.5,39.2,22.7,39.2,23L39.2,23z M35.8,22.7C35.8,22.6,35.8,22.6,35.8,22.7c-0.1-0.1,0-0.2-0.1-0.2
				c-0.1-0.1-0.1-0.2-0.2-0.2c-0.2,0-0.5-0.1-0.6,0.1s-0.1,0.5,0,0.7s0.1,0.3,0.1,0.5s0,0.3,0.2,0.3s0.2-0.1,0.2-0.3
				c0-0.1,0-0.3,0-0.4C35.6,22.9,35.7,22.8,35.8,22.7L35.8,22.7z M25,31.7c0.3,0,0.6-0.2,0.6-0.5s-0.2-0.5-0.6-0.6
				c-0.3,0-0.6,0.2-0.6,0.5C24.5,31.5,24.7,31.7,25,31.7L25,31.7z M44.1,12.9c0,0.1,0,0.3,0,0.3c0.2,0.2,0.1,0.3,0.1,0.5
				c0,0.1,0,0.3,0.2,0.3s0.2-0.1,0.2-0.3c0-0.1,0-0.3,0-0.4c0.2-0.2,0.2-0.4,0.2-0.7c0-0.2-0.1-0.3-0.3-0.3
				C44.1,12.4,44.1,12.4,44.1,12.9L44.1,12.9z M46.8,17.2C46.7,17.2,46.7,17.2,46.8,17.2c-0.1-0.1,0-0.2-0.1-0.2
				c0-0.1-0.1-0.3-0.2-0.3c-0.2,0-0.5,0-0.6,0.1c-0.1,0.2-0.1,0.5,0,0.7C46,17.7,46,17.8,46,18c0,0.1,0,0.3,0.2,0.3s0.2-0.1,0.2-0.3
				c0-0.1,0-0.3,0-0.4C46.6,17.5,46.7,17.4,46.8,17.2L46.8,17.2z M33.8,13.7c0,0.1,0,0.2,0,0.3c0.2,0.2,0.1,0.4,0.2,0.6
				c0,0.1,0.1,0.2,0.2,0.2c0.2,0,0.2-0.1,0.2-0.3c0-0.1,0-0.3,0-0.4c0.2-0.2,0.2-0.4,0.2-0.6c0-0.2-0.1-0.3-0.4-0.4
				C33.9,13.2,33.8,13.3,33.8,13.7L33.8,13.7z M41.4,18.8c0,0.1,0,0.3,0,0.3c0.2,0.2,0.2,0.4,0.2,0.5s0,0.2,0.2,0.2s0.2-0.1,0.2-0.2
				s0-0.3,0-0.4c0.2-0.2,0.1-0.4,0.2-0.6c0-0.2-0.1-0.3-0.3-0.4C41.5,18.4,41.4,18.4,41.4,18.8L41.4,18.8z M45.7,40.3
				c0,0.3,0.3,0.6,0.6,0.6s0.6-0.2,0.6-0.6c0-0.3-0.2-0.5-0.6-0.5S45.7,40,45.7,40.3L45.7,40.3z M38,13.6c0,0.1,0,0.3,0.1,0.3
				c0.2,0.1,0.1,0.3,0.1,0.5s0,0.3,0.2,0.3s0.2-0.1,0.2-0.3c0-0.1,0-0.3,0.1-0.4c0.2-0.2,0.1-0.5,0.1-0.7c0-0.1-0.1-0.1-0.2-0.2
				C38.2,13.1,38,13,38,13.6L38,13.6z M28.4,24.1c0-0.3-0.3-0.6-0.6-0.6c-0.4,0-0.6,0.3-0.6,0.6c0,0.3,0.3,0.6,0.6,0.6
				C28.2,24.6,28.4,24.4,28.4,24.1L28.4,24.1z M42.1,27.4c0-0.3-0.3-0.6-0.6-0.6s-0.6,0.2-0.6,0.6c0,0.3,0.3,0.6,0.6,0.6
				C41.9,28,42.1,27.7,42.1,27.4L42.1,27.4z M31.1,25.5c0,0.3,0.3,0.6,0.6,0.6c0.3,0,0.6-0.3,0.6-0.6c0-0.3-0.3-0.6-0.6-0.6
				C31.3,24.9,31.1,25.1,31.1,25.5L31.1,25.5z M46.3,27.5c0-0.3-0.3-0.6-0.6-0.6s-0.6,0.3-0.6,0.6c0,0.3,0.3,0.6,0.6,0.6
				C46.1,28.1,46.3,27.8,46.3,27.5L46.3,27.5z M50.1,28.5c0-0.3-0.2-0.6-0.6-0.6c-0.3,0-0.6,0.2-0.6,0.6c0,0.3,0.2,0.6,0.6,0.6
				C49.8,29,50,28.8,50.1,28.5L50.1,28.5z M32.3,16.1c-0.3,0.1-0.5,0.6-0.3,0.8c0.1,0.2,0.1,0.3,0.1,0.5c0,0.2,0,0.3,0.2,0.3
				s0.2-0.1,0.2-0.3c0-0.2,0-0.3,0.1-0.5c0.1-0.2,0.1-0.4,0-0.7c0-0.1-0.2-0.1-0.3-0.2c0.1-0.1,0.2-0.2,0.1-0.4c-0.1,0-0.2,0-0.3,0
				C32,15.8,32.1,15.9,32.3,16.1L32.3,16.1z M37.3,12.6c0-0.2,0-0.3,0-0.4c0,0-0.3-0.1-0.3,0c-0.2,0.1,0,0.3,0.1,0.4
				c-0.3,0.1-0.5,0.6-0.3,0.8s0.2,0.3,0.1,0.5c0,0.1,0,0.3,0.2,0.3s0.2-0.1,0.2-0.3s0-0.3,0.1-0.5C37.7,13.2,37.5,12.6,37.3,12.6
				L37.3,12.6z M31.1,12.5c-0.3,0.1-0.5,0.6-0.3,0.9c0.1,0.2,0.1,0.3,0.1,0.5c0,0.1,0,0.3,0.2,0.3s0.2-0.1,0.2-0.3s0-0.3,0.1-0.5
				C31.6,13.2,31.4,12.7,31.1,12.5c0.1,0,0.2-0.1,0.1-0.3c-0.1-0.1-0.2-0.1-0.3,0C30.9,12.3,31,12.4,31.1,12.5L31.1,12.5z
				 M32.9,20.3c-0.3,0.1-0.5,0.6-0.3,0.9c0.2,0.2,0.1,0.3,0.1,0.5c0,0.1,0,0.3,0.2,0.3s0.2-0.1,0.2-0.3c0-0.1,0-0.3,0.1-0.4
				c0.2-0.3,0.1-0.8-0.1-0.9c0-0.2,0-0.3,0-0.4c0,0-0.2-0.1-0.3,0C32.6,20.1,32.7,20.2,32.9,20.3L32.9,20.3z M39.4,16.4
				c-0.2,0.1-0.4,0.6-0.2,0.8c0.1,0.2,0.1,0.3,0.1,0.5c0,0.2,0,0.3,0.2,0.3s0.2-0.1,0.2-0.3c0-0.2,0-0.3,0.1-0.5
				c0.2-0.2,0-0.7-0.2-0.8c0-0.2,0-0.3,0-0.4h-0.3C39.4,16.1,39.4,16.2,39.4,16.4L39.4,16.4z M28.9,30.8c0.3,0,0.6-0.3,0.6-0.6
				c0-0.3-0.3-0.6-0.6-0.6c-0.4,0-0.6,0.3-0.6,0.6C28.3,30.6,28.6,30.8,28.9,30.8L28.9,30.8z M42.3,13.1
				C42.3,13.1,42.3,13,42.3,13.1c-0.1-0.1-0.1-0.2-0.1-0.2c0-0.2,0-0.3-0.2-0.3s-0.5-0.1-0.6,0.1c-0.1,0.2-0.1,0.6,0,0.8
				s0.1,0.4,0.1,0.6c0,0.2,0,0.3,0.2,0.3s0.3-0.2,0.2-0.3c0-0.1,0-0.3,0-0.4C42.1,13.4,42.2,13.2,42.3,13.1L42.3,13.1z M36.8,16.9
				L36.8,16.9c-0.1-0.5-0.1-0.6-0.6-0.6c-0.1,0-0.3,0.1-0.3,0.1c0,0.3-0.1,0.6,0,0.8c0.1,0.2,0.1,0.4,0.1,0.5c0,0.2,0,0.3,0.2,0.3
				s0.3-0.2,0.3-0.3s0-0.3,0-0.4C36.6,17.2,36.7,17,36.8,16.9L36.8,16.9z M51,38.2c0,0.4,0.3,0.7,0.7,0.7s0.7-0.3,0.7-0.7
				s-0.3-0.7-0.7-0.7C51.3,37.6,51,37.9,51,38.2L51,38.2z M47.5,34.5c0.4,0,0.7-0.3,0.7-0.7c0-0.4-0.3-0.7-0.7-0.7s-0.7,0.3-0.7,0.7
				C46.8,34.2,47.1,34.5,47.5,34.5L47.5,34.5z M27.8,35.6c0-0.4-0.3-0.7-0.7-0.7c-0.4,0-0.7,0.3-0.7,0.7s0.3,0.7,0.7,0.7
				C27.5,36.2,27.8,36,27.8,35.6L27.8,35.6z M43.7,31.2c-0.4,0-0.7,0.3-0.7,0.7s0.3,0.7,0.7,0.7s0.7-0.3,0.7-0.7
				C44.4,31.5,44.1,31.2,43.7,31.2L43.7,31.2z M33.4,31.1c0-0.4-0.3-0.7-0.7-0.7S32,30.7,32,31.1c0,0.4,0.3,0.7,0.7,0.7
				C33,31.8,33.4,31.5,33.4,31.1L33.4,31.1z M31,37.4c-0.4,0-0.8,0.3-0.8,0.7s0.3,0.8,0.8,0.8c0.4,0,0.8-0.3,0.8-0.7
				C31.8,37.7,31.5,37.4,31,37.4L31,37.4z M23.4,38.9c0.4,0,0.8-0.3,0.8-0.7s-0.3-0.8-0.8-0.7c-0.4,0-0.8,0.3-0.8,0.7
				C22.6,38.5,23,38.9,23.4,38.9L23.4,38.9z M44.1,38.8c0-0.4-0.3-0.7-0.8-0.7c-0.4,0-0.8,0.3-0.8,0.7s0.3,0.7,0.8,0.7
				C43.8,39.5,44.1,39.2,44.1,38.8L44.1,38.8z M39.3,13.7L39.3,13.7c0,0.2,0,0.4,0.1,0.6c0.1,0.1,0.2,0.3,0.2,0.4c0,0.1,0,0.2,0,0.4
				s0.1,0.3,0.3,0.3s0.3-0.1,0.3-0.3s0-0.3,0-0.5c0-0.1,0-0.1,0-0.2c0.3-0.1,0.3-0.4,0.2-0.6c0-0.7-0.1-0.8-0.8-0.7
				c-0.2,0-0.4,0.1-0.4,0.4C39.3,13.5,39.3,13.6,39.3,13.7L39.3,13.7z M33.2,13.8c0-0.7,0-0.7-0.7-0.7h-0.1c-0.2,0-0.4,0.1-0.4,0.4
				c0,0.2,0,0.4,0,0.6c0,0.1,0,0.2,0.1,0.3c0.2,0.1,0.2,0.2,0.2,0.4c0,0.1,0,0.2,0,0.4s0.1,0.3,0.3,0.3s0.3-0.1,0.3-0.3s0-0.3,0-0.5
				c0-0.1,0-0.2,0-0.2C33.3,14.3,33.2,14,33.2,13.8L33.2,13.8z M36.7,20c0-0.1,0-0.2,0-0.3c0-0.3-0.1-0.4-0.4-0.4
				c-0.7,0-0.7,0-0.7,0.7c0,0.1,0,0.2,0,0.3c0,0.1,0,0.2,0.1,0.2c0.2,0.1,0.2,0.3,0.2,0.5c0,0.1,0,0.2,0,0.3c0,0.1,0.2,0.2,0.3,0.2
				c0.2,0.1,0.3-0.1,0.3-0.3c0-0.2-0.1-0.5,0-0.6C36.8,20.5,36.8,20.3,36.7,20L36.7,20z M42,15.9c0-0.7,0-0.7-0.7-0.7h-0.1
				c-0.2,0-0.4,0.1-0.4,0.3s0,0.4,0,0.7c0,0.1,0,0.2,0.1,0.2c0.2,0.1,0.2,0.3,0.2,0.4c0,0.1,0,0.3,0,0.4c0,0.2,0.1,0.3,0.3,0.3
				s0.3-0.1,0.3-0.3c0-0.2,0-0.3,0-0.5c0-0.1,0-0.2,0-0.2C42.1,16.5,42,16.2,42,15.9L42,15.9z M36.2,14c0-0.1,0-0.2,0-0.3
				c0-0.2-0.1-0.3-0.3-0.4c-0.5-0.1-0.7,0-0.8,0.2v0.1c0,0.2,0,0.4,0,0.6c0,0.1,0,0.2,0.1,0.3c0.2,0.1,0.2,0.3,0.2,0.4
				c0,0.1,0,0.2,0,0.3c0,0.2,0.1,0.4,0.3,0.4s0.3-0.1,0.3-0.3s0-0.3,0-0.5c0-0.1,0-0.1,0-0.1C36.2,14.5,36.2,14.3,36.2,14L36.2,14z
				 M38.6,20.4c0-0.1,0-0.2,0-0.3c0-0.2-0.1-0.3-0.3-0.4c-0.5-0.1-0.7,0-0.8,0.2V20c0,0.2,0,0.4,0,0.6c0,0.1,0.1,0.2,0.1,0.3
				c0,0.1,0.1,0.2,0.1,0.3c0,0.1,0,0.3,0,0.4c0,0.2,0.1,0.3,0.3,0.3s0.3-0.1,0.3-0.3c0-0.2,0-0.3,0-0.5c0-0.1,0-0.1,0-0.2
				C38.6,20.9,38.5,20.6,38.6,20.4L38.6,20.4z M36.2,34.1c0-0.7,0-0.7-0.7-0.7h-0.1c-0.2,0-0.3,0.1-0.4,0.3c0,0.2,0,0.5,0,0.7
				c0,0.1,0,0.2,0.1,0.2c0.2,0.1,0.2,0.3,0.2,0.4c0,0.1,0,0.3,0,0.4c0,0.2,0.1,0.3,0.3,0.3s0.3-0.1,0.3-0.3s0-0.4,0-0.5s0-0.2,0-0.2
				C36.2,34.6,36.1,34.3,36.2,34.1L36.2,34.1z M31.1,35.3c0-0.7,0-0.7-0.7-0.7h-0.1c-0.3,0-0.4,0.1-0.4,0.4c0,0.2,0,0.4,0,0.7
				c0,0.1,0,0.2,0.1,0.3c0.2,0.1,0.2,0.3,0.2,0.4c0,0.1,0,0.2,0,0.4s0.1,0.3,0.3,0.3c0.2,0,0.3-0.1,0.3-0.3s0-0.3,0-0.5
				c0-0.1,0-0.2,0-0.2C31.2,35.8,31.1,35.5,31.1,35.3L31.1,35.3z M47.8,20.4c0-0.1,0-0.2,0-0.4c0-0.2-0.1-0.3-0.4-0.4
				c-0.6,0-0.8,0-0.8,0.3s0,0.5,0,0.8c0,0.1,0.1,0.2,0.1,0.2c0.2,0.1,0.2,0.2,0.2,0.4c0,0.1,0,0.3,0,0.4c0,0.2,0.1,0.3,0.3,0.3
				s0.3-0.1,0.3-0.3c0-0.2,0-0.3,0-0.5c0-0.1,0-0.2,0-0.2C47.9,21,47.8,20.7,47.8,20.4L47.8,20.4z M43.9,14.1c0-0.1,0-0.2,0-0.3
				c0-0.2-0.1-0.3-0.3-0.4c-0.6-0.1-0.8,0-0.9,0.3c0,0,0,0,0,0.1c0,0.3,0,0.5,0,0.8c0,0.1,0,0.2,0.1,0.2c0.2,0.1,0.2,0.3,0.2,0.4
				c0,0.1,0,0.3,0,0.4c0,0.2,0.1,0.3,0.3,0.3s0.3-0.1,0.3-0.3s0-0.4,0-0.5s0-0.2,0-0.2C44,14.7,43.9,14.4,43.9,14.1L43.9,14.1z
				 M28.4,20L28.4,20c0,0.2,0,0.5,0.1,0.6s0.2,0.2,0.2,0.4c0,0.1,0,0.3,0,0.4c0,0.2,0.1,0.3,0.3,0.3c0.2,0,0.3-0.1,0.3-0.3
				c0-0.2,0-0.3,0-0.5c0-0.1,0-0.2,0-0.2c0.3-0.1,0.3-0.4,0.3-0.7c0-0.7,0-0.7-0.8-0.7c-0.3,0-0.5,0.1-0.5,0.4
				C28.4,19.8,28.4,19.9,28.4,20L28.4,20z M45.7,14.9c0-0.7,0-0.7-0.7-0.7h-0.1c-0.3,0-0.4,0.1-0.4,0.4c0,0.2,0,0.4,0,0.7
				c0,0.1,0.1,0.2,0.1,0.3c0.2,0.1,0.2,0.2,0.2,0.4c0,0.1,0,0.3,0,0.4c0,0.2,0.1,0.3,0.3,0.3s0.3-0.1,0.3-0.3c0-0.2,0-0.3,0-0.5
				c0-0.1,0-0.2,0-0.2C45.8,15.5,45.7,15.2,45.7,14.9L45.7,14.9z M27.8,42.2c0.1,0.2,0,0.5,0.2,0.6c0.1,0.1,0.2,0.2,0.2,0.4
				s0,0.3,0,0.5c0,0.1,0.2,0.2,0.3,0.3c0.3,0.1,0.4-0.1,0.4-0.4c0-0.3-0.1-0.6,0.2-0.7c0,0,0.1-0.1,0.1-0.2c0-0.2,0-0.5,0-0.7
				s-0.1-0.3-0.4-0.3C28,41.5,27.8,41.4,27.8,42.2L27.8,42.2z M41.4,35.5c0-0.7-0.1-0.7-0.8-0.7h-0.1c-0.2,0-0.3,0.1-0.3,0.3
				s0,0.5,0,0.7c0,0.1,0,0.2,0.1,0.2c0.2,0.1,0.2,0.3,0.2,0.4c0,0.1,0,0.3,0,0.4c0,0.2,0.1,0.3,0.3,0.3s0.3-0.1,0.3-0.3s0-0.4,0-0.5
				s0-0.1,0-0.2C41.5,36,41.4,35.7,41.4,35.5L41.4,35.5z M39,35.1c0-0.7,0-0.7-0.8-0.7h-0.1c-0.2,0-0.4,0.1-0.4,0.4
				c0,0.2,0,0.5,0,0.7c0,0.1,0.1,0.2,0.1,0.3c0.1,0.1,0.2,0.2,0.1,0.3c0,0.1,0,0.3,0,0.4c0,0.2,0.1,0.3,0.3,0.3
				c0.3,0,0.3-0.1,0.3-0.3s0-0.3,0-0.5c0-0.1,0-0.2,0-0.2C39,35.6,38.9,35.3,39,35.1L39,35.1z M27.5,30.9c0-0.1,0-0.2,0-0.3
				c0-0.2-0.1-0.4-0.3-0.4c-0.4-0.1-0.8,0-0.9,0.2v0.1c0,0.3,0,0.5,0,0.8c0,0.1,0.1,0.2,0.1,0.3c0.1,0.1,0.1,0.2,0.1,0.3
				c0,0.1,0,0.3,0,0.4c0,0.2,0.1,0.3,0.3,0.3c0.3,0,0.3-0.1,0.3-0.3c0-0.2,0-0.3,0-0.5c0-0.1,0-0.1,0-0.2
				C27.5,31.4,27.5,31.1,27.5,30.9L27.5,30.9z M25.4,42.6c0,0.2,0,0.5,0.1,0.6c0.2,0.2,0.2,0.3,0.2,0.5c0,0.1,0,0.2,0,0.4
				s0.1,0.3,0.3,0.3c0.2,0,0.3-0.1,0.3-0.3c0-0.1,0-0.2,0-0.3c0-0.2-0.1-0.5,0.2-0.6c0.1,0,0.1-0.1,0.1-0.2c0-0.2,0-0.5,0-0.7
				s-0.1-0.4-0.4-0.4C25.5,41.9,25.3,41.9,25.4,42.6L25.4,42.6z M42.7,18.4c0,0.2,0,0.4,0.1,0.5c0.2,0.2,0.2,0.4,0.2,0.7
				c0,0.4,0.1,0.5,0.3,0.5s0.3-0.1,0.3-0.5c0-0.2-0.1-0.5,0.2-0.7c0.1,0,0.1-0.1,0.1-0.2c0-0.2,0-0.5,0-0.7c0-0.2-0.1-0.3-0.4-0.3
				C42.9,17.7,42.7,17.6,42.7,18.4L42.7,18.4z M30.9,15.6c0-0.1,0-0.3,0-0.4c0-0.2-0.2-0.3-0.4-0.4c-0.6,0-0.8,0-0.8,0.3l0,0
				c0,0.3,0,0.5,0,0.8c0,0.1,0.1,0.2,0.1,0.2c0.2,0.1,0.2,0.2,0.2,0.4c0,0.1,0,0.3,0,0.4c0,0.2,0.1,0.3,0.3,0.3
				c0.2,0,0.3-0.1,0.3-0.3c0-0.2,0-0.3,0-0.5c0-0.1,0-0.2,0-0.2C31,16.1,30.9,15.8,30.9,15.6L30.9,15.6z M34.6,38.8
				c0-0.8,0-0.8-0.7-0.8h-0.1c-0.3,0-0.4,0.1-0.4,0.4c0,0.2,0,0.4,0,0.7c0,0.1,0,0.2,0.1,0.2c0.2,0.1,0.2,0.3,0.2,0.5
				c0,0.1,0,0.2,0,0.3c0,0.2,0.1,0.3,0.3,0.3s0.3-0.1,0.3-0.3s0-0.3,0-0.5c0-0.1,0-0.2,0-0.2C34.7,39.3,34.6,39,34.6,38.8L34.6,38.8
				z M37,16.5c0.1,0.2,0,0.5,0.2,0.6c0.1,0.1,0.2,0.2,0.2,0.4c0,0.1,0,0.3,0,0.4c0,0.2,0.1,0.3,0.3,0.3s0.3-0.1,0.3-0.3
				c0-0.1,0-0.3,0-0.4c0-0.2,0-0.4,0.2-0.5c0.1,0,0.1-0.2,0.1-0.3c0-0.2,0-0.4,0-0.6c0-0.4-0.1-0.5-0.5-0.5
				C37.1,15.7,37.1,15.7,37,16.5L37,16.5z M30.7,23.7c0-0.1,0-0.2,0-0.3c0-0.3-0.1-0.5-0.5-0.5c-0.2,0-0.3,0-0.5,0s-0.4,0.1-0.4,0.3
				c0,0.3,0,0.6,0,0.9c0,0.1,0,0.2,0.1,0.2c0.3,0.1,0.2,0.3,0.2,0.5c0,0.1,0,0.3,0,0.4c0,0.2,0.1,0.3,0.3,0.3c0.2,0,0.4-0.1,0.4-0.3
				c0-0.2,0-0.4,0-0.7c0-0.1,0-0.2,0-0.2C30.8,24.3,30.7,24,30.7,23.7L30.7,23.7z M48,40.9c0,0.2,0,0.3,0,0.5c0,0.1,0.1,0.3,0.1,0.3
				c0.2,0.1,0.2,0.3,0.2,0.5s0,0.4,0,0.5c0,0.3,0.1,0.4,0.4,0.4c0.3,0,0.5-0.1,0.5-0.4c0-0.3,0-0.5,0-0.8c0-0.1,0.1-0.2,0.1-0.2
				c0.1-0.1,0.2-0.3,0.2-0.4c0-0.3,0-0.6,0-0.9c0-0.3-0.2-0.4-0.5-0.4c-0.2,0-0.5,0-0.7,0c-0.3,0-0.4,0.2-0.5,0.4
				C48,40.6,48,40.7,48,40.9L48,40.9z M51.3,35c0-0.1,0-0.3,0-0.4c0-0.3-0.2-0.5-0.5-0.5c-0.2,0-0.4,0-0.6,0c-0.3,0-0.5,0.2-0.5,0.5
				s0,0.6,0,0.9c0,0.1,0.1,0.3,0.1,0.3c0.3,0.1,0.2,0.4,0.2,0.6c0,0.2,0,0.3,0,0.5c0,0.3,0.1,0.4,0.4,0.4c0.3,0,0.4-0.1,0.4-0.4
				c0-0.2,0-0.5,0-0.7s0-0.3,0.2-0.4c0.1-0.1,0.2-0.2,0.2-0.4C51.3,35.3,51.3,35.2,51.3,35L51.3,35z M36.2,28.9c0-0.2,0-0.3,0-0.5
				c0-0.3-0.2-0.5-0.5-0.5c-0.2,0-0.5,0-0.7,0c-0.3,0-0.5,0.2-0.5,0.5s0,0.7,0,1c0,0.1,0.1,0.3,0.1,0.3c0.3,0.1,0.2,0.4,0.2,0.6
				s0,0.4,0,0.5c0,0.3,0.1,0.4,0.4,0.4c0.3,0,0.5-0.1,0.5-0.4c0-0.2,0-0.5,0-0.7s0-0.4,0.2-0.5c0.1,0,0.2-0.2,0.2-0.4
				C36.2,29.2,36.2,29,36.2,28.9L36.2,28.9z M38,24.4c0-0.1,0-0.3,0-0.4c0-0.3-0.2-0.5-0.5-0.5c-0.2,0-0.4,0-0.6,0
				c-0.3,0-0.5,0.2-0.5,0.5s0,0.6,0,1c0,0.1,0.1,0.3,0.1,0.3c0.3,0.1,0.2,0.4,0.2,0.6s0,0.3,0,0.5c0,0.3,0.2,0.4,0.5,0.4
				s0.4-0.1,0.4-0.4s0-0.5,0-0.8c0-0.1,0.1-0.2,0.1-0.3c0.2-0.1,0.3-0.3,0.2-0.5C38,24.7,38,24.5,38,24.4L38,24.4z M32.9,8h-1.3
				c0.1,1.2,0.1,2.4,0.2,3.6h1C32.8,10.4,32.8,9.2,32.9,8L32.9,8z M39.5,19.5c0,0.2,0,0.3,0,0.5c0,0.1,0.1,0.3,0.1,0.3
				c0.3,0.1,0.2,0.4,0.2,0.6s0,0.3,0,0.5c0,0.3,0.1,0.4,0.4,0.4c0.3,0,0.5-0.1,0.5-0.4s0-0.5,0-0.8c0-0.1,0-0.2,0.2-0.3
				c0.1-0.1,0.2-0.2,0.2-0.4c0-0.3,0-0.7,0-1s-0.2-0.4-0.5-0.5c-0.3,0-0.5,0-0.8,0s-0.5,0.2-0.5,0.5C39.5,19.2,39.5,19.4,39.5,19.5
				L39.5,19.5z M41.7,11.6c0.1-1.2,0.1-2.4,0.2-3.6h-1.4c0.1,1.2,0.1,2.4,0.2,3.6H41.7z M33.5,25.6L33.5,25.6c0,0.2,0,0.3,0,0.5
				c0,0.3,0.2,0.4,0.5,0.4s0.4-0.1,0.4-0.4s0-0.6,0-0.9c0-0.1,0-0.2,0.2-0.3c0.1-0.1,0.3-0.2,0.3-0.4c0-0.4,0-0.8,0-1.1
				c0-0.3-0.2-0.4-0.5-0.4s-0.5,0-0.8,0s-0.5,0.2-0.5,0.5c0,0.4,0,0.7,0,1.1c0,0.1,0.1,0.3,0.2,0.4C33.5,25.1,33.5,25.3,33.5,25.6
				C33.5,25.4,33.5,25.5,33.5,25.6L33.5,25.6z M46,20.4L46,20.4c0-0.2,0-0.3,0-0.5c0-0.3-0.2-0.5-0.5-0.5c-0.2,0-0.5,0-0.7,0
				c-0.3,0-0.6,0.2-0.6,0.5s0,0.6,0,1c0,0.2,0.1,0.4,0.3,0.5c0.1,0,0.1,0.1,0.1,0.2c0,0.3,0,0.6,0,0.9s0.2,0.4,0.5,0.4
				s0.5-0.1,0.5-0.4s0-0.6,0-0.8c0-0.2,0-0.3,0.2-0.4c0.1-0.1,0.2-0.3,0.2-0.4C46,20.8,46,20.6,46,20.4L46,20.4z M42.5,8
				c0.1,1.2,0,2.4,0.2,3.6c0.3,0,0.6,0,0.9,0c0.2,0,0.2-0.1,0.2-0.2c0-0.7,0.1-1.4,0.1-2.1c0-0.4,0-0.9,0-1.4L42.5,8L42.5,8z
				 M43.3,22.8c0-0.2,0-0.3,0-0.5c0-0.4-0.2-0.5-0.6-0.6c-0.2,0-0.5,0-0.7,0c-0.4,0-0.6,0.2-0.6,0.6c0,0.3,0,0.6,0,1
				c0,0.2,0.1,0.4,0.3,0.5c0.1,0,0.1,0.2,0.1,0.2c0,0.3,0,0.6,0,0.9s0.2,0.4,0.5,0.4s0.5-0.1,0.5-0.4s0-0.6,0-0.8
				c0-0.1,0-0.2,0.2-0.3c0.1-0.1,0.2-0.3,0.2-0.4C43.3,23.1,43.3,23,43.3,22.8L43.3,22.8z M35.2,18.1c0-0.2,0-0.3,0-0.5
				c0-0.3-0.2-0.5-0.5-0.5c-0.2,0-0.4,0-0.7,0c-0.4,0-0.6,0.2-0.6,0.6c0,0.3,0,0.6,0,0.9c0,0.1,0.1,0.4,0.2,0.4
				c0.3,0.1,0.3,0.4,0.3,0.6s0,0.4,0,0.6c0,0.4,0.1,0.5,0.5,0.5c0.3,0,0.5-0.1,0.5-0.5c0-0.3,0-0.6,0-0.8c0-0.1,0-0.2,0.1-0.3
				c0.2-0.1,0.3-0.2,0.3-0.5C35.1,18.4,35.2,18.3,35.2,18.1L35.2,18.1z M32.3,19.7c0-0.2,0-0.3,0-0.5c0-0.4-0.2-0.6-0.6-0.6
				c-0.2,0-0.4,0-0.6,0c-0.4,0-0.6,0.2-0.6,0.6c0,0.3,0,0.6,0,0.9c0,0.1,0.1,0.4,0.2,0.4c0.3,0.1,0.3,0.4,0.3,0.6s0,0.4,0,0.6
				c0,0.3,0.1,0.4,0.5,0.4c0.3,0,0.5-0.1,0.5-0.4s0-0.6,0-0.9c0-0.1,0.1-0.2,0.1-0.2c0.2-0.1,0.3-0.3,0.3-0.5
				C32.3,20,32.3,19.9,32.3,19.7L32.3,19.7z M40.7,24.7c0-0.2,0-0.3,0-0.5c0-0.4-0.2-0.6-0.6-0.6c-0.2,0-0.4,0-0.6,0
				c-0.4,0-0.6,0.2-0.6,0.5s0,0.7,0,1c0,0.1,0.1,0.3,0.2,0.4c0.3,0.1,0.3,0.4,0.3,0.6s0,0.4,0,0.6c0,0.3,0.1,0.4,0.5,0.5
				c0.3,0,0.5-0.1,0.5-0.4s0-0.5,0-0.8c0-0.2,0-0.2,0.2-0.4c0.1-0.1,0.2-0.3,0.2-0.4C40.7,25,40.7,24.8,40.7,24.7L40.7,24.7z
				 M33.5,8c0.1,1.2,0.1,2.3,0.2,3.4c0,0.2,0.1,0.2,0.2,0.2c0.2,0,0.5,0,0.7,0s0.2-0.1,0.2-0.2c0-0.6,0.1-1.1,0.1-1.7
				c0-0.6,0-1.2,0-1.8L33.5,8L33.5,8z M47,26.8c0,0.1,0,0.3,0,0.4c0,0.3,0.2,0.5,0.5,0.5s0.5-0.1,0.5-0.5c0-0.3,0-0.5,0-0.8
				c0-0.1,0-0.2,0.2-0.3c0.1-0.1,0.2-0.3,0.3-0.4c0-0.3,0-0.7,0-1s-0.2-0.5-0.5-0.5s-0.5,0-0.8,0s-0.5,0.2-0.5,0.5s0,0.7,0,1
				c0,0.1,0.1,0.4,0.2,0.4c0.2,0.1,0.2,0.2,0.2,0.4C47,26.6,47,26.7,47,26.8L47,26.8z M44.7,25.7c0-0.2,0-0.3,0-0.5
				c0-0.4-0.2-0.6-0.6-0.6c-0.2,0-0.5,0-0.7,0c-0.3,0-0.5,0.2-0.5,0.5s0,0.7,0,1c0,0.2,0.2,0.3,0.2,0.5c0.1,0.1,0.1,0.2,0.1,0.3
				c0,0.3,0,0.6,0,0.9s0.2,0.4,0.5,0.4s0.4-0.1,0.5-0.4c0-0.3,0-0.6,0-0.9c0-0.1,0.1-0.2,0.1-0.2c0.2-0.1,0.3-0.3,0.3-0.5
				C44.7,26,44.7,25.9,44.7,25.7L44.7,25.7z M26,33c0-0.2,0-0.4,0-0.6c0-0.3-0.2-0.6-0.6-0.6c-0.3,0-0.5,0-0.8,0
				c-0.4,0-0.6,0.2-0.6,0.6c0,0.4,0,0.7,0,1.1c0,0.2,0.1,0.4,0.3,0.5c0.1,0,0.1,0.2,0.1,0.2c0,0.3,0,0.6,0,1c0,0.3,0.2,0.5,0.6,0.5
				c0.3,0,0.5-0.2,0.5-0.5s0-0.6,0-0.9c0-0.1,0.1-0.2,0.1-0.3c0.2-0.1,0.3-0.3,0.3-0.5C26,33.3,26,33.2,26,33L26,33z M47.2,42.2
				c0-0.2,0-0.4,0-0.6c0-0.3-0.2-0.5-0.5-0.5s-0.6,0-0.9,0c-0.3,0-0.5,0.2-0.5,0.6c0,0.4,0,0.7,0,1.1c0,0.2,0.1,0.4,0.2,0.4
				c0.3,0.1,0.3,0.3,0.3,0.6c0,0.2,0,0.5,0,0.7c0,0.3,0.2,0.5,0.5,0.5c0.4,0,0.5-0.2,0.5-0.5s0-0.6,0-1c0-0.1,0.1-0.2,0.1-0.2
				c0.2-0.1,0.3-0.3,0.3-0.5C47.2,42.5,47.2,42.3,47.2,42.2L47.2,42.2z M50.5,30.4c0-0.2,0-0.4,0-0.6c0-0.4-0.2-0.6-0.6-0.6
				c-0.3,0-0.6,0-0.9,0c-0.4,0-0.6,0.2-0.6,0.6s0,0.8,0,1.2c0,0.2,0.1,0.4,0.3,0.5c0.1,0.1,0.2,0.2,0.2,0.3c0,0.3,0,0.7,0,1
				c0,0.4,0.2,0.5,0.6,0.5c0.4,0,0.5-0.2,0.5-0.5s0-0.7,0-1c0-0.1,0-0.2,0.1-0.2c0.3-0.1,0.4-0.4,0.4-0.7
				C50.5,30.7,50.5,30.6,50.5,30.4L50.5,30.4z M28.4,27.2c0.3-0.1,0.5-0.3,0.5-0.6c0-0.4,0-0.8,0-1.2c0-0.4-0.3-0.6-0.6-0.6
				c-0.3,0-0.5,0-0.8,0c-0.5,0-0.7,0.2-0.7,0.7c0,0.3,0,0.6,0,0.9c0,0.4,0.1,0.7,0.5,0.8c0,0.4,0,0.8,0,1.2c0,0.3,0.2,0.5,0.6,0.5
				s0.5-0.1,0.5-0.5C28.4,28.1,28.4,27.7,28.4,27.2L28.4,27.2z M32.7,27.4c0-0.2,0-0.4,0-0.6c0-0.4-0.2-0.6-0.6-0.6
				c-0.3,0-0.6,0-0.9,0c-0.4,0-0.6,0.2-0.6,0.6s0,0.8,0,1.2c0,0.2,0.1,0.4,0.3,0.5c0.1,0.1,0.2,0.2,0.2,0.3c0,0.3,0,0.7,0,1
				s0.2,0.5,0.6,0.5c0.4,0,0.6-0.2,0.6-0.5s0-0.7,0-1c0-0.1,0.1-0.2,0.1-0.2c0.2-0.1,0.3-0.3,0.3-0.6C32.7,27.8,32.7,27.6,32.7,27.4
				L32.7,27.4z M42.5,29.3L42.5,29.3c0-0.2,0-0.4,0-0.6c0-0.3-0.2-0.6-0.6-0.6c-0.3,0-0.6,0-0.9,0c-0.4,0-0.6,0.3-0.6,0.6
				c0,0.4,0,0.8,0,1.2c0,0.2,0.1,0.4,0.3,0.5c0.1,0.1,0.2,0.1,0.2,0.3c0,0.3,0,0.6,0,1c0,0.4,0.2,0.6,0.6,0.6c0.4,0,0.6-0.2,0.6-0.6
				c0-0.3,0-0.7,0-1c0-0.1,0.1-0.2,0.1-0.2c0.3-0.1,0.4-0.4,0.4-0.6C42.5,29.7,42.5,29.5,42.5,29.3L42.5,29.3z M46.3,30.6
				c0.4-0.1,0.5-0.4,0.5-0.8c0-0.3,0-0.7,0-1c0-0.4-0.2-0.6-0.6-0.6c-0.3,0-0.6,0-0.8,0c-0.4,0-0.6,0.3-0.6,0.6c0,0.4,0,0.8,0,1.2
				c0,0.3,0.1,0.4,0.4,0.6c0.1,0,0.1,0.2,0.1,0.2c0,0.3,0,0.7,0,1c0,0.4,0.2,0.5,0.6,0.5c0.4,0,0.6-0.2,0.6-0.5
				C46.3,31.5,46.3,31.1,46.3,30.6L46.3,30.6z M30,32.3c0-0.2,0-0.4,0-0.6c0-0.4-0.2-0.6-0.6-0.6c-0.3,0-0.6,0-0.9,0
				c-0.4,0-0.6,0.3-0.6,0.7c0,0.4,0,0.8,0,1.2c0,0.3,0.1,0.4,0.3,0.6c0.1,0.1,0.2,0.2,0.2,0.3c0,0.4,0,0.7,0,1.1
				c0,0.4,0.2,0.5,0.7,0.5c0.3,0,0.5-0.2,0.5-0.5c0-0.4,0-0.7,0-1.1c0-0.1,0-0.2,0.1-0.2c0.3-0.2,0.4-0.4,0.4-0.7
				C30,32.6,30,32.4,30,32.3L30,32.3z M52.9,40.5L52.9,40.5c0-0.2,0-0.5,0-0.7c0-0.4-0.3-0.7-0.7-0.7c-0.3,0-0.7,0-1,0
				c-0.4,0-0.7,0.3-0.7,0.7c0,0.5,0,0.9,0,1.4c0,0.3,0.2,0.5,0.4,0.7c0.1,0,0.2,0.2,0.2,0.2c0,0.4,0,0.8,0,1.3
				c0,0.4,0.2,0.6,0.6,0.6c0.4,0,0.6-0.2,0.7-0.5c0-0.4,0-0.9,0-1.3c0-0.1,0.1-0.2,0.2-0.2c0.3-0.1,0.4-0.4,0.4-0.7
				C52.9,40.9,52.9,40.7,52.9,40.5L52.9,40.5z M45,34.2c0-0.2,0-0.5,0-0.7c0-0.4-0.3-0.7-0.7-0.7c-0.3,0-0.6,0-1,0s-0.7,0.3-0.7,0.7
				c0,0.5,0,0.9,0,1.4c0,0.3,0.1,0.5,0.4,0.6c0.2,0.1,0.2,0.1,0.2,0.3c0,0.4,0,0.8,0,1.3c0,0.4,0.2,0.5,0.6,0.5
				c0.4,0,0.6-0.2,0.6-0.5c0-0.4,0-0.8,0-1.3c0-0.1,0-0.2,0.2-0.3c0.3-0.1,0.4-0.3,0.4-0.6S45,34.4,45,34.2L45,34.2z M28.4,37.8
				c0-0.2,0-0.5,0-0.7c0-0.4-0.3-0.7-0.8-0.7c-0.3,0-0.6,0-1,0s-0.7,0.2-0.7,0.6c0,0.5,0,1,0,1.6c0,0.2,0.2,0.4,0.4,0.5
				c0.2,0.1,0.2,0.2,0.2,0.3c0,0.4,0,0.8,0,1.2s0.2,0.6,0.6,0.6s0.6-0.2,0.6-0.6c0-0.4,0-0.8,0-1.2c0-0.1,0.1-0.2,0.1-0.2
				c0.4-0.2,0.5-0.4,0.5-0.8C28.4,38.2,28.4,38,28.4,37.8L28.4,37.8z M32,34.8c0,0.5,0,1,0,1.4c0,0.3,0.1,0.5,0.4,0.5
				c0.5,0.1,0.9,0,0.9-0.6c0-0.5,0-0.9,0-1.4c0.4-0.1,0.6-0.3,0.6-0.7c0-0.5,0-0.9,0-1.4c0-0.4-0.3-0.7-0.7-0.7c-0.3,0-0.6,0-0.9,0
				c-0.5,0-0.8,0.3-0.8,0.8c0,0.4,0,0.8,0,1.1C31.4,34.3,31.5,34.7,32,34.8L32,34.8z M46.9,37.5c0,0.5,0,1,0,1.4s0.2,0.6,0.6,0.6
				c0.4,0,0.6-0.2,0.6-0.6c0-0.4,0-0.8,0-1.2c0-0.1,0.1-0.2,0.1-0.2c0.3-0.1,0.4-0.4,0.4-0.7c0-0.5,0-0.9,0-1.4
				c0-0.4-0.3-0.7-0.7-0.7c-0.3,0-0.7,0-1,0c-0.5,0-0.7,0.3-0.7,0.7s0,0.8,0,1.2C46.3,37,46.4,37.4,46.9,37.5L46.9,37.5z M37.8,33.3
				L37.8,33.3c0.4,0,0.8,0,1.1,0s0.4-0.1,0.3-0.5c-0.3-1.3-0.6-2.6-0.9-3.9c-0.1-0.4-0.2-0.7-0.3-1.1c0-0.1-0.2-0.2-0.2-0.2
				c-0.1,0-0.2,0.1-0.3,0.2c-0.1,0.2-0.1,0.3-0.2,0.5c-0.3,1.5-0.7,3-1,4.5c-0.1,0.4,0,0.5,0.4,0.5C37.2,33.3,37.5,33.3,37.8,33.3
				L37.8,33.3z M32.3,40.6c0-0.2,0-0.5,0-0.7c0-0.5-0.3-0.8-0.8-0.8c-0.4,0-0.7,0-1.1,0c-0.5,0-0.8,0.3-0.8,0.8s0,1,0,1.5
				c0,0.3,0.1,0.6,0.4,0.7c0.1,0.1,0.2,0.1,0.2,0.3c0,0.5,0,0.9,0,1.4c0,0.4,0.2,0.6,0.8,0.6c0.4,0,0.7-0.2,0.7-0.6
				c0-0.5,0-0.9,0-1.4c0-0.1,0-0.2,0.2-0.3c0.3-0.1,0.4-0.4,0.4-0.7C32.3,41.1,32.3,40.8,32.3,40.6L32.3,40.6z M22.7,42.1
				c0,0.5,0,1.1,0,1.6c0,0.4,0.2,0.6,0.7,0.6s0.7-0.2,0.7-0.6c0-0.5,0-0.9,0-1.4c0-0.1,0.1-0.2,0.1-0.2c0.3-0.2,0.5-0.4,0.5-0.7
				c0-0.5,0-1,0-1.5s-0.3-0.8-0.8-0.8c-0.4,0-0.7,0-1.1,0c-0.5,0-0.8,0.3-0.8,0.8c0,0.4,0,0.9,0,1.3C22,41.6,22.2,42,22.7,42.1
				L22.7,42.1z M44.7,41.2c0-0.2,0-0.5,0-0.7c0-0.4-0.3-0.7-0.7-0.8c-0.4,0-0.8,0-1.2,0s-0.7,0.3-0.7,0.7c0,0.5,0,1.1,0,1.6
				c0,0.3,0.2,0.5,0.5,0.7c0.1,0.1,0.2,0.1,0.2,0.3c0,0.5,0,0.9,0,1.4c0,0.4,0.2,0.7,0.7,0.7s0.7-0.2,0.7-0.7s0-0.9,0-1.4
				c0-0.1,0-0.2,0.2-0.3c0.3-0.1,0.4-0.4,0.4-0.7C44.7,41.7,44.7,41.5,44.7,41.2L44.7,41.2z M39.7,11.6c0.1-1.2,0.1-2.4,0.2-3.6
				h-4.2c0.1,1.2,0.1,2.4,0.2,3.6H39.7z M26.7,22.4c-0.1,0-0.1,0-0.2,0c-1,0-2,0.1-3.1,0.1c-1.2,0-2.4,0.1-3.5,0.1
				c-0.4,0-0.7-0.2-0.9-0.6c-0.1-0.2-0.1-0.3-0.2-0.4c-0.4-0.8-1.1-1.1-2-1.1c-0.8,0-1.2,0.7-0.8,1.4c0.2,0.3,0.5,0.6,0.8,0.8
				c1.1,0.9,2.4,1.5,3.6,2.1c1.5,0.7,3,1.3,4.4,2c0.2,0.1,0.3,0.1,0.5,0.2C25.8,25.4,26.2,23.9,26.7,22.4L26.7,22.4z M28.8,15.4
				c0.2-0.7,0.4-1.4,0.6-2.1c0.1-0.3,0.2-0.6,0.3-0.9c0.1-0.4,0.4-0.7,0.8-0.7c0.1,0,0.1,0,0.2-0.1c0.1-1.2,0.1-2.4,0.2-3.6
				c-0.1,0-0.3,0-0.4,0V6.7c0.1,0,0.3,0,0.4,0c0,0,0,0,0-0.1c0.1,0,0.2-0.1,0.3-0.1c0.8,0,1.6,0,2.4,0h0.3c0.3-1.9,1.6-2.7,3.4-3
				c0-0.2,0.1-0.5-0.1-0.7c0,0,0-0.1,0.1-0.2c0.1-0.3,0.4-0.5,0.6-0.7c0.1,0.2,0.3,0.3,0.4,0.5c0,0,0.1,0,0.1,0.1
				c0.2,0.1,0.2,0.1,0.1,0.3c-0.1,0.2-0.1,0.4-0.1,0.7c1.8,0.3,3.1,1.1,3.4,3H43c0.5,0,1,0,1.5,0c0.2,0,0.4,0.2,0.4,0.3
				c0.1,0.4,0,0.8,0,1.2c-0.2,0-0.3,0-0.4,0c0,0.4,0,0.9,0,1.3c0,0.7,0.1,1.4,0.1,2.1c0,0.1,0.1,0.2,0.2,0.2
				c0.4,0.1,0.7,0.3,0.8,0.7c0.2,0.8,0.5,1.5,0.7,2.3c0.6-0.3,1.3-0.7,1.9-1c1.7-0.8,3.6-1.2,5.5-1.4s3.8-0.3,5.6-0.1
				c3,0.3,5.9,1,8.4,2.6c2.7,1.7,4.6,4.1,5.2,7.2c0.2,1,0.3,2,0.2,3.1c0,0.3-0.1,0.4-0.5,0.5c-1.7,0-3.3,0.1-5,0.1
				c-2.5,0.1-5,0.1-7.5,0.2c-0.4,0-0.9,0-1.3,0c-0.2,0-0.5-0.1-0.7-0.2c-0.3-0.1-0.5-0.4-0.5-0.8c0-0.9,0-1.8,0-2.7
				c0-0.4-0.2-0.6-0.6-0.8c-0.4-0.1-0.7-0.1-1.1,0c-0.5,0.2-0.7,0.4-0.7,0.9c0,4.5,0,9.1,0,13.6c0,0.5,0.2,0.8,0.7,0.9
				c0.3,0.1,0.6,0.1,0.9,0c0.4-0.1,0.7-0.3,0.7-0.9c0-1.4,0-2.8,0-4.2c0-0.5,0.3-0.8,0.8-0.8c2.2,0,4.4,0.1,6.6,0.1
				c2.3,0.1,4.6,0.1,6.9,0.2c1,0,0.9,0.2,0.9,0.9c0,2.3-0.4,4.6-1.4,6.7c-1.4,2.9-3.6,4.9-6.7,6.1c-1.7,0.7-3.5,1-5.4,1.2
				c-1.7,0.2-3.4,0.2-5.1,0c-1-0.1-2-0.3-3.1-0.5c-0.1,0-0.3,0-0.4,0c-2.7,0-5.4,0-8.1,0c-0.2,0-0.4,0-0.6-0.1
				c-0.3-0.1-0.4-0.2-0.5-0.5c-0.5-2.1-0.9-4.3-1.4-6.4c0.4-0.5,0.3-0.6,0-0.6c-0.1,0-0.2,0-0.3,0c-1.2,0-2.5,0-3.7,0
				c-0.5,0-0.7,0.2-0.8,0.6c-0.4,2.1-0.9,4.1-1.3,6.2c-0.1,0.5-0.4,0.7-0.9,0.7c-0.1,0-0.1,0-0.2,0c-3.9,0-7.8,0-11.7,0
				c-1.3,0-2.6,0.2-3.9,0.2c-3,0-5.9-0.2-8.8-1.2c-2.2-0.8-4.1-1.9-5.5-3.7c-1.2-1.5-2-3.2-2.2-5.1c-0.3-0.7-0.3-1.3-0.3-2
				C0.4,33.2,0.5,33,1,33c0.4,0,0.8,0,1.1-0.1c2.6-0.1,5.3-0.2,7.9-0.3c0.4,0,0.8,0,1.3,0c0.6,0,0.8,0.2,0.9,0.7
				c0.2,1.1,0.6,2.1,1.5,2.8c0.7,0.6,1.5,0.9,2.4,0.7s1.4-1.4,0.6-2.1c-0.7-0.6-1.5-1.1-2.3-1.6c-2.1-1.1-4.2-2.2-6.3-3.3
				c-1.8-0.9-3.5-2.1-4.9-3.6c-1-1.1-1.8-2.4-2.1-3.9c-0.4-1.7,0-3.3,1-4.8c1-1.6,2.5-2.8,4.3-3.8s3.8-1.5,5.9-1.9
				c2.2-0.3,4.4-0.4,6.6-0.2c2.9,0.3,5.7,1,8.2,2.5c0.5,0.3,1,0.7,1.4,1C28.6,15.3,28.7,15.3,28.8,15.4L28.8,15.4z"/>
		</g>
	</g>
</g>
</svg>
