<svg width="533" height="533" viewBox="0 0 533 533" fill="none" xmlns="http://www.w3.org/2000/svg">
<path d="M532.8 266.25C532.8 191.85 425.25 68.71 333.68 20.37C309.42 7.55 286.25 0 266.55 0C242.71 0 213.87 11 184.09 29C155.09 46.58 125.15 70.76 98.0898 97.82C70.7498 125.13 46.3398 155.4 28.7498 184.72C11.1598 214.04 0.259766 242.64 0.259766 266.24C0.259766 360.37 172.36 532.49 266.51 532.49C290.29 532.49 319.09 521.49 348.81 503.49C377.88 485.93 407.81 461.69 434.93 434.61C462.2 407.36 486.55 377.19 504.12 347.96C521.93 318.48 532.8 289.9 532.8 266.25Z" fill="#494949"/>
<path d="M353.94 178.86C326.94 150.66 297.49 122.44 266.94 97.3198C241.38 76.3198 215.07 57.4398 188.79 42.5898C161.45 59.1298 133.23 81.9298 107.79 107.43L266.55 266.25L353.94 178.86Z" fill="#40C9FF"/>
<path d="M329.86 34.4102C307 22.3202 285.15 15.2002 266.55 15.2002C244.08 15.2002 216.88 25.6102 188.79 42.6002C215.07 57.4502 241.38 76.3102 266.94 97.3302L329.86 34.4102Z" fill="#9661BA"/>
<path d="M349.29 349L266.55 266.26L107.74 107.44C81.9996 133.2 58.9996 161.74 42.3696 189.38C95.4596 281.31 196.51 373.22 267.24 431L349.29 349Z" fill="#FFA233"/>
<path d="M344.15 490C337.72 485.46 307.36 463.72 267.27 431C196.51 373.25 95.46 281.34 42.37 189.41C25.69 217.13 15.5 244 15.5 266.25C15.5 355.01 177.79 517.25 266.55 517.25C289 517.31 316.13 506.93 344.15 490Z" fill="#FF5A7E"/>
<path d="M517.6 266.25C517.6 196.1 416.2 80.0002 329.85 34.4102L266.94 97.3302C297.49 122.44 326.94 150.67 353.94 178.87L266.55 266.26L349.29 349L267.24 431C307.33 463.71 337.7 485.45 344.12 490C371.53 473.44 399.8 450.6 425.32 425.05C451 399.43 474 371 490.56 343.41C507.38 315.5 517.6 288.55 517.6 266.25Z" fill="#FFD91D"/>
</svg>
