<svg xmlns="http://www.w3.org/2000/svg" viewBox="0 0 71.15 71.14"><defs><style>.cls-1{fill:#787878;}.cls-2{fill:#fff;}</style></defs><title>Asset 1</title><g id="Layer_2" data-name="Layer 2"><g id="Layer_1-2" data-name="Layer 1"><g id="Swimming"><circle class="cls-1" cx="35.57" cy="35.57" r="35.57"/><path class="cls-2" d="M28.71,32.25a33.19,33.19,0,0,1,9.84,3c1.48.69,3,1.59,4.29,2.3s2.5,1.39,3.77,2L38.89,24.27l-1.62-2.86L31.51,11.33a3,3,0,1,0-5.14,2.94l6.36,11.16L31.1,26.88l-9.72,5.55-.23.13a22.9,22.9,0,0,1,7.56-.3Zm0,0"/><path class="cls-2" d="M52.85,31.63a6.4,6.4,0,1,0-8.73-2.39,6.41,6.41,0,0,0,8.73,2.39Zm0,0"/><path class="cls-2" d="M65,36.41c-.91,3-2.34,5.82-4.38,7.26s-4.26,1.54-6.75,1a31.84,31.84,0,0,1-7.6-2.86c-1.28-.65-2.54-1.3-3.79-2s-2.82-1.6-4.29-2.29a33.24,33.24,0,0,0-9.84-3,21.79,21.79,0,0,0-10.65,1.2,18.76,18.76,0,0,0-8.27,6.39,19.39,19.39,0,0,0-3.66,9c3.81-5.05,8.67-8.67,13.72-9.52s10.27.59,15.35,3c1.33.6,2.44,1.21,3.9,2s3,1.46,4.51,2.06a28.45,28.45,0,0,0,10.1,2.19,14.27,14.27,0,0,0,5.58-1,10.2,10.2,0,0,0,4.55-3.6A12.22,12.22,0,0,0,65,36.41Zm0,0"/></g></g></g></svg>